<?xml version="1.0" encoding="UTF-8"?>
<svg xmlns="http://www.w3.org/2000/svg" version="1.1" viewBox="0 0 16 16">
  <!-- Generator: Adobe Illustrator 29.1.0, SVG Export Plug-In . SVG Version: 2.1.0 Build 142)  -->
  <defs>
    <style>
      .st0 {
        fill: #fff;
      }
    </style>
  </defs>
  <g id="Layer_1">
    <rect x="0" y="0" width="16" height="16"/>
  </g>
  <g id="Layer_2">
    <path class="st0" d="M8,3.4c-2.5,0-4.6,2.1-4.6,4.6s2.1,4.6,4.6,4.6,4.6-2,4.6-4.6-2.1-4.6-4.6-4.6ZM8,9.6c-.6,0-1-.7-1-1.6s.5-1.6,1-1.6,1,.7,1,1.6-.5,1.6-1,1.6ZM11,9.4c-.5,0-.8-.6-.8-1.4s.4-1.4.8-1.4.9.6.9,1.4-.4,1.4-.9,1.4Z"/>
  </g>
</svg>