<?xml version="1.0" encoding="UTF-8"?>
<svg id="Ebene_1" data-name="Ebene 1" xmlns="http://www.w3.org/2000/svg" viewBox="0 0 64 64">
  <defs>
    <style>
      .cls-1 {
        fill: #fff;
      }
    </style>
  </defs>
  <g id="Layer_2" data-name="Layer 2">
    <path class="cls-1" d="M31.999998,0C14.608695,0,0,14.608695,0,31.999998s14.608695,32.000002,31.999998,32.000002,32.000002-13.913043,32.000002-32.000002S49.391302,0,31.999998,0ZM31.999998,43.130435c-4.173912,0-6.956522-4.869564-6.956522-11.130437s3.478261-11.130434,6.956522-11.130434,6.956522,4.869564,6.956522,11.130434-3.478261,11.130437-6.956522,11.130437ZM52.869563,41.739126c-3.478261,0-5.565219-4.173916-5.565219-9.739131s2.782606-9.739131,5.565219-9.739131,6.260867,4.173912,6.260867,9.739131-2.782606,9.739131-6.260867,9.739131Z"/>
  </g>
</svg>