<?xml version="1.0" encoding="UTF-8"?>
<svg id="Layer_1" xmlns="http://www.w3.org/2000/svg" xmlns:xlink="http://www.w3.org/1999/xlink" version="1.1" viewBox="0 0 1200 1200">
  <!-- Generator: Adobe Illustrator 29.1.0, SVG Export Plug-In . SVG Version: 2.1.0 Build 142)  -->
  <defs>
    <style>
      .st0 {
        fill: none;
      }

      .st1 {
        fill: #fffdf8;
        fill-rule: evenodd;
      }

      .st2 {
        clip-path: url(#clippath);
      }
    </style>
    <clipPath id="clippath">
      <rect class="st0" y="0" width="1200" height="1200"/>
    </clipPath>
  </defs>
  <g class="st2">
    <path class="st1" d="M522.2,764.8c-47.1,72.2-126.1,163.6-231.1,163.6s-97.4-20.4-97.4-109.3c0-226.2,308.8-576.3,595.3-576.3s227.9,113.1,227.9,241.5-107,353.3-213.3,353.3-50.3-18.5-50.3-47.9,1.3-16,3.8-24.9c-36.3,62-106.3,119.5-171.9,119.5s-71.9-30-71.9-72.2,3.2-31.3,8.9-47.3ZM769,479.9c0,37.4-22.1,56.1-46.8,56.1s-46.8-18.7-46.8-56.1,21.7-56.1,46.8-56.1,46.8,18.7,46.8,56.1ZM909.4,479.9c0,37.4-22.1,56.1-46.8,56.1s-46.8-18.7-46.8-56.1,21.7-56.1,46.8-56.1,46.8,18.7,46.8,56.1Z"/>
  </g>
</svg>